<svg viewBox="0 0 500 500" xmlns="http://www.w3.org/2000/svg" width="48" height="48">
    <ellipse fill="#ff4040" cx="250" cy="250" rx="250" ry="250"></ellipse>
    <path d="M 150.186 366.704 C 131.931 366.704 116.478 363.902 103.827 358.297 C 91.176 352.692 81.728 343.725 75.483 331.395 C 69.238 319.064 66.116 302.811 66.116 282.634 L 66.116 66.341 C 81.706 50.622 99.569 33.47 137.215 16.284 L 137.215 271.104 C 137.215 278.791 138.576 285.036 141.298 289.84 C 144.021 294.644 147.784 297.927 152.588 299.688 C 157.392 301.449 162.836 302.33 168.921 302.33 L 281.335 302.33 L 281.335 366.704 L 150.186 366.704 Z" fill="#fff"></path>
  </svg>