<svg width="167" height="181" viewBox="0 0 167 181" fill="none" xmlns="http://www.w3.org/2000/svg">
    <path
        d="M27.5 38L31.5 41.5L33 39.5L36.5 36.5L41 35L39.5 36.5L36.5 43L39.5 41.5L44.5 38L50 35L48 38V41.5L51 38L55.5 36.5H59L55.5 39.5V45L57.5 41.5L61.5 39.5L65 38L62.5 41.5L61.5 46L65 41.5L68.5 39.5L72 38V41.5V45L78 43L85 41.5L92.5 44L96.5 45L103 44L100.5 48L105.5 47L110 44L109 48L103 50.5L114.5 49.5L108 52H113H116.5L120.5 53.5L103 57.5L116.5 56.5L111 60H118L123 61.5L130.5 64L134.5 68.5L133 71.5L134.5 80.5L137.5 82L140.5 88.5L142.5 96.5V102L139 107L136 110V114.5L133 116.5L129 117.5L127 116.5H123L120.5 114.5L114.5 113.5L107 110L100.5 107L96.5 105.5L99.5 104L92.5 103L87.5 102L82.5 98.5H72L68.5 97.5L66.5 95.5L60 96.5L53.5 95.5H49H43.5L39.5 94H29H25L19.5 92L14 90.5L10.5 88.5L7 86.5L4 83.5L3 80.5L8 74L2 77.5L4 71.5L8 66.5L2 68.5L3 66.5L5.5 63H9L8 60V56.5L12 60L10.5 57.5L8 52L9 46L10.5 52L12 44L14 39.5L17 35L19.5 39.5H22.5V36.5L26 33V35L27.5 38Z"
        fill="white" />
    <path
        d="M29 94H25L19.5 92L14 90.5L10.5 88.5L7 86.5L4 83.5L3 80.5L8 74L2 77.5L4 71.5L8 66.5L2 68.5L3 66.5L5.5 63H9L8 60V56.5L12 60L10.5 57.5L8 52L9 46L10.5 52L12 44L14 39.5L17 35L19.5 39.5H22.5V36.5L26 33V35L27.5 38L31.5 41.5L33 39.5L36.5 36.5L41 35L39.5 36.5L36.5 43L39.5 41.5L44.5 38L50 35L48 38V41.5L51 38L55.5 36.5H59L55.5 39.5V45L57.5 41.5L61.5 39.5L65 38L62.5 41.5L61.5 46L65 41.5L68.5 39.5L72 38V41.5V45L78 43L85 41.5L92.5 44M29 94L34.5 92H39.5M29 94H39.5M39.5 94H49M39.5 94L43.5 95.5H49H53.5M53.5 95.5L58 94L61.5 92L57.5 93.75L53.5 95.5ZM53.5 95.5L60 96.5L66.5 95.5M66.5 95.5H74.5M66.5 95.5L68.5 97.5L72 98.5M72 98.5L78 97.5M72 98.5H82.5M78 97.5L85 95.5L87.5 93.75L78 97.5ZM82.5 98.5H92.5M82.5 98.5L87.5 102L92.5 103L99.5 104M99.5 104L105.5 103L109 100.5M99.5 104L96.5 105.5L100.5 107M100.5 107L107 105.5L113 102M100.5 107L109 108.5H116.5M100.5 107L107 110M107 110L115.5 112H119M107 110L114.5 113.5L120.5 114.5M120.5 114.5L126 112L129 108.5M120.5 114.5L123 116.5H127M127 116.5L130.5 114.5M127 116.5L129 117.5L133 116.5M133 116.5L134.5 113.5V111M133 116.5L136 114.5V110M136 110V107M136 110L139 107L142.5 102V96.5L140.5 88.5L137.5 82L134.5 80.5L133 71.5L134.5 68.5L130.5 64L123 61.5L118 60H111L116.5 56.5L103 57.5L120.5 53.5L116.5 52H113H108L114.5 49.5L103 50.5L109 48L110 44L105.5 47L100.5 48M100.5 48L94.5 49.5L91 53.5M100.5 48L103 44L96.5 45M96.5 45L91 48M96.5 45L92.5 44M92.5 44H87.5L82.5 47"
        stroke="black" stroke-width="3" />
    <path
        d="M143 143L142 141L141.5 139.5L140.5 138H142.5L144.5 138.5L146.5 140L148.5 142.5V143H150L152.5 142.5H155L156.5 143L158 144.5L159 145V146H157L155.5 146.5L157.5 147.5L159.5 149L161.5 151L162.5 154L165 157.5L165.5 159.5L162.5 157L163.5 160L164 162.5V164.5L163 166.5L162.5 168L160 171L158.5 172L159.5 168.5L158 172L157 173L154 176L153.5 173.5L152.5 172.5L152 175.5L149 177.5L146.5 179.5L144.5 180L145 178.75L141 179.5H138.5L137.5 178.75H135L133 178L131.5 176.25L129 176L126 173.5L124.5 170.5L122.5 168L122 164L123 161L121 162L120 163.5L119 162L119.5 158.5L121.5 155.5L123.5 153L126 151.5L123 152L120 154L121.5 151L123.5 149L127 145.5L129.5 144H132.5L131 141.5L130 141L134 140.5L139 141L143 143Z"
        fill="white" />
    <path
        d="M144.5 144.5L143 143M143 143L142 141L141.5 139.5L140.5 138H142.5L144.5 138.5L146.5 140L148.5 142.5V143H150L152.5 142.5H155L156.5 143L158 144.5L159 145V146H157L155.5 146.5M143 143L139 141L134 140.5L130 141L131 141.5L132.5 144M155.5 146.5L154 147L153 147.5L155.5 146.5ZM155.5 146.5L157.5 147.5L159.5 149L161.5 151L162.5 154M162.5 154L160.5 152L158 150.5L155 149.5M162.5 154L158.5 152.5H156.5M162.5 154L165 157.5L165.5 159.5L162.5 157L163.5 160L164 162.5V164.5M164 164.5L162 161L159.5 158M164 164.5L163 166.5L162.5 168M162.5 168L161.5 165L160.5 162.5M162.5 168L160 171L158.5 172L159.5 168.5M159.5 168.5L159 166M159.5 168.5L158 172L157 173M157 173L156.5 169.5L155.5 167.5M157 173L154 176L153.5 173.5L152.5 172.5M152.5 172.5L151.5 169.5M152.5 172.5L152 175.5L149 177.5M149 177.5V174M149 177.5L146.5 179.5L144.5 180L145 178.75M149 174V171.5M149 174L146.5 171M145.5 177.5L146 176.25L146.5 175L145.7 173M145.5 177.5L143.5 174M145.5 177.5L145 178.75M145.7 173L145.5 172.5L143 169.5L145.7 173ZM145 178.75L141 179.5H138.5L137.5 178.75M136.5 178L135.5 175L136 172.5M136.5 178L134.5 176L133.5 173.5M136.5 178L137.5 178.75M137.5 178.75H135L133 178L131.5 176.25M131.5 176.25L131 174M131.5 176.25L129 176L126 173.5L124.5 170.5M131 174V170.5M131 174L129.5 173L129.25 172.5M131 174L129.25 172.5M129 164.5L128 168.5L128.5 171L129.25 172.5M124.5 170.5L125 167.5L126 164.5M124.5 170.5L122.5 168L122 164L123 161L125 160L121 162M121 162V160.5L122.5 159.5L124.5 158.5L126.5 159M121 162L120 163.5L119 162L119.5 158.5L121.5 155.5L123.5 153L126 151.5M126 151.5L127.5 152.5M126 151.5L123 152L120 154L121.5 151L123.5 149M123.5 149L126 148H129M123.5 149L127 145.5L129.5 144H132.5M132.5 144L136.5 145"
        stroke="black" />
    <path
        d="M23.5 36L19.5 39L20.5 51.5L30.5 44L28 51.5L41 44L36.5 51.5L49 45.5L44 54L55.5 48L50.5 54L63 48V54L78.5 51.5L72 56L86.5 51.5L81 56L92.5 54L89 59L100.5 54L97 59L103 56L105 69.5L108.5 80.5L112.5 89L119.5 96L123.5 103.5L130.5 110.5L135.5 118L139 125V136.5V141L143.5 142L144.5 144L148.5 141C148.5 141 150.773 144.503 152.5 141C153.947 138.064 157 133.5 157 133.5V125V118L152.5 110.5L148.5 103.5L144.5 96L141.5 89L139 82.5V74.5V64.5V56L141.5 48V40L139 31L135.5 25L130.5 21.5L123.5 18.5L119.5 13.5L114.5 9.5L108.5 7L103 4L97 1H89H81L75 4L65.5 9.5L55.5 15.5L50.5 18.5L44 21.5L36.5 25L30.5 28.5L23.5 36Z"
        fill="#C80000" />
    <path
        d="M103 56L105 69.5L108.5 80.5L112.5 89L119.5 96L123.5 103.5L130.5 110.5L135.5 118L139 125V136.5V141L143.5 142L144.5 144L148.5 141C148.5 141 150.773 144.503 152.5 141C153.947 138.064 157 133.5 157 133.5V125V118L152.5 110.5L148.5 103.5L144.5 96L141.5 89L139 82.5V74.5V64.5V56L141.5 48V40L139 31L135.5 25L130.5 21.5L123.5 18.5L119.5 13.5L114.5 9.5L108.5 7L103 4L97 1H89H81L75 4L65.5 9.5L55.5 15.5L50.5 18.5L44 21.5L36.5 25L30.5 28.5L23.5 36L19.5 39L20.5 51.5L30.5 44L28 51.5L41 44L36.5 51.5L49 45.5L44 54L55.5 48L50.5 54L63 48V54L78.5 51.5L72 56L86.5 51.5L81 56L92.5 54L89 59L100.5 54L97 59L103 56ZM103 56L105 44L103 36L100.5 28.5"
        stroke="black" stroke-width="3" />
</svg>