<svg role="img" viewBox="0 0 24 24" xmlns="http://www.w3.org/2000/svg">
    <title>Goodreads</title>
    <path
        d="M11.975 15.3223C16.1871 15.3223 17.6959 12.0532 17.6959 8.84703C17.6959 5.64081 16.3128 1.74306 12.1007 1.74306C7.88865 1.74306 6.44271 5.51508 6.44271 8.65843C6.44271 11.8018 7.88865 15.3223 11.975 15.3223ZM19.7076 15.8253C19.7076 22.9921 15.4327 23.9351 12.2893 23.998C9.14598 24.0608 5.1225 22.6778 4.9339 18.9057H7.00851C8.20298 21.7347 11.3463 22.9292 14.0496 21.9862C16.7529 21.0432 17.3187 19.4087 17.5073 14.6937C13.9867 18.78 7.57431 17.5227 5.56257 13.8764C3.55083 10.2301 3.9909 5.01214 6.44271 2.37173C8.89452 -0.268679 14.3011 -1.46315 17.5073 2.87467V0.548591H19.7076" />
</svg>