<svg viewBox="0 0 24 24" xmlns="http://www.w3.org/2000/svg">
    <path
        d="M14.8541 13.779C15.1771 13.2631 15.3638 12.6533 15.3638 12C15.3638 11.3467 15.1771 10.7369 14.8541 10.221C14.5311 10.7369 14.3445 11.3467 14.3445 12C14.3445 12.6533 14.5311 13.2631 14.8541 13.779Z" />
    <path fill-rule="evenodd" clip-rule="evenodd"
        d="M12 24C18.6274 24 24 18.6274 24 12C24 5.37258 18.6274 0 12 0C5.37258 0 0 5.37258 0 12C0 18.6274 5.37258 24 12 24ZM9.14589 13.779C8.5515 14.7285 7.49547 15.36 6.29178 15.36C4.43401 15.36 2.928 13.8557 2.928 12C2.928 10.1443 4.43401 8.64 6.29178 8.64C7.49547 8.64 8.5515 9.27153 9.14589 10.221C8.8229 10.7369 8.63622 11.3467 8.63622 12C8.63622 12.6533 8.8229 13.2631 9.14589 13.779ZM14.8541 13.779C15.4485 14.7285 16.5045 15.36 17.7082 15.36C19.566 15.36 21.072 13.8557 21.072 12C21.072 10.1443 19.566 8.64 17.7082 8.64C16.5045 8.64 15.4485 9.27153 14.8541 10.221C14.2597 9.27153 13.2037 8.64 12 8.64C10.7963 8.64 9.74028 9.27153 9.14589 10.221C9.46887 10.7369 9.65555 11.3467 9.65555 12C9.65555 12.6533 9.46887 13.2631 9.14589 13.779C9.74028 14.7285 10.7963 15.36 12 15.36C13.2037 15.36 14.2597 14.7285 14.8541 13.779Z" />
</svg>