<svg width="48" height="64" viewBox="0 0 48 64" fill="none" xmlns="http://www.w3.org/2000/svg">
    <path
        d="M27.3137 31H24.8995L26.6066 32.7071L44.8909 50.9914C47.6245 53.725 47.6245 58.1572 44.8909 60.8909C42.1572 63.6245 37.725 63.6245 34.9914 60.8909L16.7071 42.6066L15 40.8995V43.3137V56C15 59.866 11.866 63 8 63C4.134 63 1 59.866 1 56V8C1 4.13401 4.13401 1 8 1H40C43.866 1 47 4.13401 47 8V24C47 27.866 43.866 31 40 31H27.3137Z"
        fill="#FF3A3A" />
    <path
        d="M27.3137 31H24.8995L26.6066 32.7071L44.8909 50.9914C47.6245 53.725 47.6245 58.1572 44.8909 60.8909C42.1572 63.6245 37.725 63.6245 34.9914 60.8909L16.7071 42.6066L15 40.8995V43.3137V56C15 59.866 11.866 63 8 63C4.134 63 1 59.866 1 56V8C1 4.13401 4.13401 1 8 1H40C43.866 1 47 4.13401 47 8V24C47 27.866 43.866 31 40 31H27.3137Z"
        fill="black" fill-opacity="0.2" />
    <path
        d="M27.3137 31H24.8995L26.6066 32.7071L44.8909 50.9914C47.6245 53.725 47.6245 58.1572 44.8909 60.8909C42.1572 63.6245 37.725 63.6245 34.9914 60.8909L16.7071 42.6066L15 40.8995V43.3137V56C15 59.866 11.866 63 8 63C4.134 63 1 59.866 1 56V8C1 4.13401 4.13401 1 8 1H40C43.866 1 47 4.13401 47 8V24C47 27.866 43.866 31 40 31H27.3137Z"
        stroke="#F2F2F2" stroke-width="2" />
    <path
        d="M15 48V49H16H40C43.866 49 47 52.134 47 56C47 59.866 43.866 63 40 63H8C4.13401 63 1 59.866 1 56V8C1 4.13401 4.13401 1 8 1C11.866 1 15 4.13401 15 8V48Z"
        fill="#FF3A3A" stroke="#F2F2F2" stroke-width="2" />
</svg>